<svg xmlns="http://www.w3.org/2000/svg" xmlns:xlink="http://www.w3.org/1999/xlink" width="1000" zoomAndPan="magnify" viewBox="0 0 750 749.999995" height="1000" preserveAspectRatio="xMidYMid meet" version="1.0"><defs><g/><clipPath id="04293dde4e"><path d="M 319.609375 626.695312 L 430.390625 626.695312 L 430.390625 737.472656 L 319.609375 737.472656 Z M 319.609375 626.695312 " clip-rule="nonzero"/></clipPath><clipPath id="aeed430290"><path d="M 375 626.695312 C 344.410156 626.695312 319.609375 651.492188 319.609375 682.082031 C 319.609375 712.675781 344.410156 737.472656 375 737.472656 C 405.589844 737.472656 430.390625 712.675781 430.390625 682.082031 C 430.390625 651.492188 405.589844 626.695312 375 626.695312 " clip-rule="nonzero"/></clipPath><clipPath id="2af934a221"><path d="M 83.394531 12.527344 L 666.601562 12.527344 L 666.601562 595.734375 L 83.394531 595.734375 Z M 83.394531 12.527344 " clip-rule="nonzero"/></clipPath><clipPath id="a50628e0a0"><path d="M 375 12.527344 C 213.953125 12.527344 83.394531 143.082031 83.394531 304.128906 C 83.394531 465.179688 213.953125 595.734375 375 595.734375 C 536.046875 595.734375 666.601562 465.179688 666.601562 304.128906 C 666.601562 143.082031 536.046875 12.527344 375 12.527344 " clip-rule="nonzero"/></clipPath><clipPath id="d1689bafbf"><path d="M 129.234375 57.785156 L 620.765625 57.785156 L 620.765625 549.316406 L 129.234375 549.316406 Z M 129.234375 57.785156 " clip-rule="nonzero"/></clipPath><clipPath id="5e7e9b794f"><path d="M 375 57.785156 C 239.265625 57.785156 129.234375 167.816406 129.234375 303.550781 C 129.234375 439.285156 239.265625 549.316406 375 549.316406 C 510.734375 549.316406 620.765625 439.285156 620.765625 303.550781 C 620.765625 167.816406 510.734375 57.785156 375 57.785156 " clip-rule="nonzero"/></clipPath><clipPath id="844d6cfd02"><path d="M 347.808594 654.890625 L 402.191406 654.890625 L 402.191406 709.277344 L 347.808594 709.277344 Z M 347.808594 654.890625 " clip-rule="nonzero"/></clipPath><clipPath id="1ba337ad09"><path d="M 375 654.890625 C 359.980469 654.890625 347.808594 667.066406 347.808594 682.082031 C 347.808594 697.101562 359.980469 709.277344 375 709.277344 C 390.019531 709.277344 402.191406 697.101562 402.191406 682.082031 C 402.191406 667.066406 390.019531 654.890625 375 654.890625 " clip-rule="nonzero"/></clipPath></defs><g clip-path="url(#04293dde4e)"><g clip-path="url(#aeed430290)"><path fill="#000000" d="M 319.609375 626.695312 L 430.390625 626.695312 L 430.390625 737.472656 L 319.609375 737.472656 Z M 319.609375 626.695312 " fill-opacity="1" fill-rule="nonzero"/></g></g><g clip-path="url(#2af934a221)"><g clip-path="url(#a50628e0a0)"><path fill="#000000" d="M 83.394531 12.527344 L 666.601562 12.527344 L 666.601562 595.734375 L 83.394531 595.734375 Z M 83.394531 12.527344 " fill-opacity="1" fill-rule="nonzero"/></g></g><g clip-path="url(#d1689bafbf)"><g clip-path="url(#5e7e9b794f)"><path fill="#ffffff" d="M 129.234375 57.785156 L 620.765625 57.785156 L 620.765625 549.316406 L 129.234375 549.316406 Z M 129.234375 57.785156 " fill-opacity="1" fill-rule="nonzero"/></g></g><g clip-path="url(#844d6cfd02)"><g clip-path="url(#1ba337ad09)"><path fill="#ffffff" d="M 347.808594 654.890625 L 402.191406 654.890625 L 402.191406 709.277344 L 347.808594 709.277344 Z M 347.808594 654.890625 " fill-opacity="1" fill-rule="nonzero"/></g></g><g fill="#000000" fill-opacity="1"><g transform="translate(179.120428, 350.874829)"><g><path d="M 46.609375 -99.890625 L 61.171875 -99.890625 L 107.09375 -1.875 L 106.046875 0 L 81.8125 0 L 74.53125 -17.484375 L 32.265625 -17.484375 L 24.921875 0 L 1.5 0 L 0.453125 -1.875 Z M 53.8125 -68.078125 L 39.328125 -34.140625 L 67.765625 -34.140625 Z M 53.8125 -68.078125 "/></g></g></g><g fill="#000000" fill-opacity="1"><g transform="translate(310.803848, 350.874829)"><g><path d="M 110.84375 -99.890625 L 124.65625 0 L 102.515625 0 L 96.359375 -53.96875 L 72.578125 0 L 59.140625 0 L 35.796875 -53.96875 L 29.5 0 L 5.859375 0 L 19.8125 -99.890625 L 33.84375 -99.890625 L 65.8125 -31.078125 L 96.96875 -99.890625 Z M 110.84375 -99.890625 "/></g></g></g><g fill="#000000" fill-opacity="1"><g transform="translate(465.378476, 350.874829)"><g><path d="M 60.265625 1.875 C 44.609375 1.875 31.550781 -3.050781 21.09375 -12.90625 C 10.632812 -22.757812 5.40625 -35.117188 5.40625 -49.984375 C 5.40625 -64.847656 10.632812 -77.207031 21.09375 -87.0625 C 31.5 -96.863281 44.554688 -101.765625 60.265625 -101.765625 C 75.828125 -101.765625 88.835938 -96.835938 99.296875 -86.984375 C 109.753906 -77.078125 114.984375 -64.742188 114.984375 -49.984375 C 114.984375 -35.222656 109.753906 -22.890625 99.296875 -12.984375 C 88.835938 -3.078125 75.828125 1.875 60.265625 1.875 Z M 29.9375 -49.984375 C 29.9375 -41.273438 32.863281 -34.066406 38.71875 -28.359375 C 44.570312 -22.660156 51.753906 -19.8125 60.265625 -19.8125 C 68.773438 -19.8125 75.957031 -22.664062 81.8125 -28.375 C 87.613281 -34.070312 90.515625 -41.273438 90.515625 -49.984375 C 90.515625 -58.691406 87.613281 -65.894531 81.8125 -71.59375 C 75.90625 -77.25 68.722656 -80.078125 60.265625 -80.078125 C 51.804688 -80.078125 44.625 -77.25 38.71875 -71.59375 C 32.863281 -65.894531 29.9375 -58.691406 29.9375 -49.984375 Z M 29.9375 -49.984375 "/></g></g></g><g fill="#000000" fill-opacity="1"><g transform="translate(510.655939, 392.475255)"><g><path d="M 30.984375 -13.328125 C 30.984375 -9.390625 29.5625 -6.097656 26.71875 -3.453125 C 23.882812 -0.816406 20.347656 0.5 16.109375 0.5 C 11.878906 0.5 8.335938 -0.8125 5.484375 -3.4375 C 2.640625 -6.0625 1.21875 -9.359375 1.21875 -13.328125 C 1.21875 -17.304688 2.640625 -20.601562 5.484375 -23.21875 C 8.316406 -25.832031 11.859375 -27.140625 16.109375 -27.140625 C 20.359375 -27.140625 23.894531 -25.832031 26.71875 -23.21875 C 29.5625 -20.601562 30.984375 -17.304688 30.984375 -13.328125 Z M 11.4375 -8.65625 C 12.695312 -7.425781 14.253906 -6.8125 16.109375 -6.8125 C 17.953125 -6.8125 19.523438 -7.425781 20.828125 -8.65625 C 22.085938 -9.875 22.71875 -11.429688 22.71875 -13.328125 C 22.71875 -15.210938 22.085938 -16.769531 20.828125 -18 C 19.523438 -19.226562 17.953125 -19.84375 16.109375 -19.84375 C 14.253906 -19.84375 12.695312 -19.226562 11.4375 -18 C 10.15625 -16.78125 9.515625 -15.222656 9.515625 -13.328125 C 9.515625 -11.429688 10.15625 -9.875 11.4375 -8.65625 Z M 11.4375 -8.65625 "/></g></g></g><g fill="#000000" fill-opacity="1"><g transform="translate(254.957207, 389.642981)"><g><path d="M 19.34375 -18.71875 L 21.40625 0 L 20.015625 0 L 18.40625 -15.109375 L 12.015625 0 L 11.234375 0 L 4.859375 -15.109375 L 3.25 0 L 1.875 0 L 3.921875 -18.71875 L 4.703125 -18.71875 L 11.59375 -2.3125 L 18.578125 -18.71875 Z M 19.34375 -18.71875 "/></g></g></g><g fill="#000000" fill-opacity="1"><g transform="translate(283.364158, 389.642981)"><g><path d="M 9.0625 -18.71875 L 9.84375 -18.71875 L 18.28125 -0.140625 L 18.21875 0 L 16.78125 0 L 14.78125 -4.484375 L 4.09375 -4.484375 L 2.03125 0 L 0.65625 0 L 0.578125 -0.140625 Z M 9.453125 -16.359375 L 4.671875 -5.796875 L 14.203125 -5.796875 Z M 9.453125 -16.359375 "/></g></g></g><g fill="#000000" fill-opacity="1"><g transform="translate(307.398845, 389.642981)"><g><path d="M 16.046875 -2.5625 L 16.046875 -18.71875 L 17.484375 -18.71875 L 17.484375 0.28125 L 16.703125 0.28125 L 4.265625 -15.828125 L 4.265625 0 L 2.828125 0 L 2.828125 -18.71875 L 3.59375 -18.71875 Z M 16.046875 -2.5625 "/></g></g></g><g fill="#000000" fill-opacity="1"><g transform="translate(332.839407, 389.642981)"><g><path d="M 9.0625 -18.71875 L 9.84375 -18.71875 L 18.28125 -0.140625 L 18.21875 0 L 16.78125 0 L 14.78125 -4.484375 L 4.09375 -4.484375 L 2.03125 0 L 0.65625 0 L 0.578125 -0.140625 Z M 9.453125 -16.359375 L 4.671875 -5.796875 L 14.203125 -5.796875 Z M 9.453125 -16.359375 "/></g></g></g><g fill="#000000" fill-opacity="1"><g transform="translate(356.874091, 389.642981)"><g><path d="M 20.1875 -9.78125 L 20.328125 -9.671875 C 20.367188 -9.523438 20.390625 -9.296875 20.390625 -8.984375 C 20.390625 -6.460938 19.535156 -4.3125 17.828125 -2.53125 C 16.003906 -0.613281 13.71875 0.34375 10.96875 0.34375 C 8.257812 0.34375 5.988281 -0.582031 4.15625 -2.4375 C 2.320312 -4.28125 1.40625 -6.585938 1.40625 -9.359375 C 1.40625 -12.128906 2.332031 -14.441406 4.1875 -16.296875 C 6.050781 -18.140625 8.332031 -19.0625 11.03125 -19.0625 C 12.519531 -19.0625 13.921875 -18.75 15.234375 -18.125 C 16.546875 -17.507812 17.648438 -16.632812 18.546875 -15.5 L 18.546875 -15.375 L 17.53125 -14.53125 L 17.421875 -14.53125 C 16.679688 -15.5 15.742188 -16.273438 14.609375 -16.859375 C 13.472656 -17.429688 12.269531 -17.71875 11 -17.71875 C 8.726562 -17.71875 6.8125 -16.921875 5.25 -15.328125 C 3.664062 -13.742188 2.875 -11.753906 2.875 -9.359375 C 2.875 -6.972656 3.65625 -4.988281 5.21875 -3.40625 C 6.78125 -1.8125 8.6875 -1.015625 10.9375 -1.015625 C 13.300781 -1.015625 15.257812 -1.847656 16.8125 -3.515625 C 18.164062 -4.929688 18.847656 -6.59375 18.859375 -8.5 L 11.046875 -8.5 L 11.046875 -9.78125 Z M 20.1875 -9.78125 "/></g></g></g><g fill="#000000" fill-opacity="1"><g transform="translate(383.354993, 389.642981)"><g><path d="M 14.953125 -18.71875 L 14.953125 -17.421875 L 4.28125 -17.421875 L 4.28125 -10.109375 L 12.75 -10.109375 L 12.75 -8.8125 L 4.28125 -8.8125 L 4.28125 -1.296875 L 14.953125 -1.296875 L 14.953125 0 L 2.828125 0 L 2.828125 -18.71875 Z M 14.953125 -18.71875 "/></g></g></g><g fill="#000000" fill-opacity="1"><g transform="translate(404.718518, 389.642981)"><g><path d="M 19.34375 -18.71875 L 21.40625 0 L 20.015625 0 L 18.40625 -15.109375 L 12.015625 0 L 11.234375 0 L 4.859375 -15.109375 L 3.25 0 L 1.875 0 L 3.921875 -18.71875 L 4.703125 -18.71875 L 11.59375 -2.3125 L 18.578125 -18.71875 Z M 19.34375 -18.71875 "/></g></g></g><g fill="#000000" fill-opacity="1"><g transform="translate(433.125466, 389.642981)"><g><path d="M 14.953125 -18.71875 L 14.953125 -17.421875 L 4.28125 -17.421875 L 4.28125 -10.109375 L 12.75 -10.109375 L 12.75 -8.8125 L 4.28125 -8.8125 L 4.28125 -1.296875 L 14.953125 -1.296875 L 14.953125 0 L 2.828125 0 L 2.828125 -18.71875 Z M 14.953125 -18.71875 "/></g></g></g><g fill="#000000" fill-opacity="1"><g transform="translate(454.488991, 389.642981)"><g><path d="M 16.046875 -2.5625 L 16.046875 -18.71875 L 17.484375 -18.71875 L 17.484375 0.28125 L 16.703125 0.28125 L 4.265625 -15.828125 L 4.265625 0 L 2.828125 0 L 2.828125 -18.71875 L 3.59375 -18.71875 Z M 16.046875 -2.5625 "/></g></g></g><g fill="#000000" fill-opacity="1"><g transform="translate(479.929547, 389.642981)"><g><path d="M 14.71875 -17.421875 L 8.265625 -17.421875 L 8.265625 0 L 6.796875 0 L 6.796875 -17.421875 L 0.40625 -17.421875 L 0.40625 -18.71875 L 14.71875 -18.71875 Z M 14.71875 -17.421875 "/></g></g></g></svg>